<?xml version="1.0" encoding="UTF-8" standalone="no"?>
<!DOCTYPE svg PUBLIC "-//W3C//DTD SVG 1.1//EN"
 "http://www.w3.org/Graphics/SVG/1.1/DTD/svg11.dtd">
<!-- Generated by graphviz version 7.1.0 (0)
 -->
<!-- Title: DockerDeps Pages: 1 -->
<svg width="1570pt" height="900pt"
 viewBox="0.00 0.00 1570.00 899.75" xmlns="http://www.w3.org/2000/svg" xmlns:xlink="http://www.w3.org/1999/xlink">
<g id="graph0" class="graph" transform="scale(1 1) rotate(0) translate(4 895.75)">
<title>DockerDeps</title>
<polygon fill="white" stroke="none" points="-4,4 -4,-895.75 1566,-895.75 1566,4 -4,4"/>
<g id="clust1" class="cluster">
<title>clusterDockerfile</title>
<polygon fill="none" stroke="royalblue" points="462,-116 462,-812.75 942,-812.75 942,-116 462,-116"/>
<text text-anchor="middle" x="702" y="-797.55" font-family="Times,serif" font-size="14.00">docker/&lt;distro&gt;/Dockerfile</text>
</g>
<g id="clust2" class="cluster">
<title>clusterCache</title>
<polygon fill="none" stroke="royalblue" points="8,-8 8,-83 1382,-83 1382,-8 8,-8"/>
<text text-anchor="middle" x="695" y="-67.8" font-family="Times,serif" font-size="14.00">cache/&lt;distro&gt;/</text>
</g>
<!-- DISTRO_IMG -->
<g id="node1" class="node">
<title>DISTRO_IMG</title>
<path fill="royalblue" stroke="black" d="M645,-887.48C645,-889.28 616.31,-890.75 581,-890.75 545.69,-890.75 517,-889.28 517,-887.48 517,-887.48 517,-858.02 517,-858.02 517,-856.22 545.69,-854.75 581,-854.75 616.31,-854.75 645,-856.22 645,-858.02 645,-858.02 645,-887.48 645,-887.48"/>
<path fill="none" stroke="black" d="M645,-887.48C645,-885.67 616.31,-884.2 581,-884.2 545.69,-884.2 517,-885.67 517,-887.48"/>
<text text-anchor="middle" x="581" y="-869.05" font-family="Times,serif" font-size="14.00">&lt;distro&gt;:latest</text>
</g>
<!-- ENV_IMG -->
<g id="node5" class="node">
<title>ENV_IMG</title>
<path fill="royalblue" stroke="black" d="M738.5,-777.1C738.5,-779.74 705.11,-781.88 664,-781.88 622.89,-781.88 589.5,-779.74 589.5,-777.1 589.5,-777.1 589.5,-734.15 589.5,-734.15 589.5,-731.51 622.89,-729.37 664,-729.37 705.11,-729.37 738.5,-731.51 738.5,-734.15 738.5,-734.15 738.5,-777.1 738.5,-777.1"/>
<path fill="none" stroke="black" d="M738.5,-777.1C738.5,-774.47 705.11,-772.33 664,-772.33 622.89,-772.33 589.5,-774.47 589.5,-777.1"/>
<text text-anchor="middle" x="664" y="-759.42" font-family="Times,serif" font-size="14.00">dice:&lt;distro&gt;_env</text>
<text text-anchor="middle" x="664" y="-744.42" font-family="Times,serif" font-size="14.00">env</text>
</g>
<!-- DISTRO_IMG&#45;&gt;ENV_IMG -->
<g id="edge10" class="edge">
<title>DISTRO_IMG&#45;&gt;ENV_IMG</title>
<path fill="none" stroke="black" d="M593.61,-854.26C606.72,-836.07 627.48,-807.28 643.06,-785.67"/>
<polygon fill="black" stroke="black" points="645.7,-787.99 648.71,-777.83 640.03,-783.89 645.7,-787.99"/>
</g>
<!-- PKG -->
<g id="node2" class="node">
<title>PKG</title>
<polygon fill="royalblue" stroke="black" points="831,-891.75 667,-891.75 663,-887.75 663,-853.75 827,-853.75 831,-857.75 831,-891.75"/>
<polyline fill="none" stroke="black" points="827,-887.75 663,-887.75"/>
<polyline fill="none" stroke="black" points="827,-887.75 827,-853.75"/>
<polyline fill="none" stroke="black" points="827,-887.75 831,-891.75"/>
<text text-anchor="middle" x="747" y="-876.55" font-family="Times,serif" font-size="14.00">packages</text>
<text text-anchor="middle" x="747" y="-861.55" font-family="Times,serif" font-size="14.00">e.g. cmake, g++, qt6</text>
</g>
<!-- PKG&#45;&gt;ENV_IMG -->
<g id="edge11" class="edge">
<title>PKG&#45;&gt;ENV_IMG</title>
<path fill="none" stroke="black" stroke-dasharray="5,2" d="M733.66,-853.25C721.72,-836.68 703.87,-811.93 689.24,-791.63"/>
<polygon fill="black" stroke="black" points="692.13,-789.66 683.45,-783.6 686.45,-793.76 692.13,-789.66"/>
<text text-anchor="middle" x="742.5" y="-824.55" font-family="Times,serif" font-size="14.00">install</text>
</g>
<!-- SRC -->
<g id="node3" class="node">
<title>SRC</title>
<polygon fill="royalblue" stroke="black" points="1023.5,-773.62 1020.5,-777.62 999.5,-777.62 996.5,-773.62 950.5,-773.62 950.5,-737.62 1023.5,-737.62 1023.5,-773.62"/>
<text text-anchor="middle" x="987" y="-751.92" font-family="Times,serif" font-size="14.00">git repo</text>
</g>
<!-- DEVEL_IMG -->
<g id="node6" class="node">
<title>DEVEL_IMG</title>
<path fill="royalblue" stroke="black" d="M879.5,-673.85C879.5,-676.49 843.42,-678.63 799,-678.63 754.58,-678.63 718.5,-676.49 718.5,-673.85 718.5,-673.85 718.5,-630.9 718.5,-630.9 718.5,-628.26 754.58,-626.12 799,-626.12 843.42,-626.12 879.5,-628.26 879.5,-630.9 879.5,-630.9 879.5,-673.85 879.5,-673.85"/>
<path fill="none" stroke="black" d="M879.5,-673.85C879.5,-671.22 843.42,-669.08 799,-669.08 754.58,-669.08 718.5,-671.22 718.5,-673.85"/>
<text text-anchor="middle" x="799" y="-656.17" font-family="Times,serif" font-size="14.00">dice:&lt;distro&gt;_devel</text>
<text text-anchor="middle" x="799" y="-641.17" font-family="Times,serif" font-size="14.00">devel</text>
</g>
<!-- SRC&#45;&gt;DEVEL_IMG -->
<g id="edge12" class="edge">
<title>SRC&#45;&gt;DEVEL_IMG</title>
<path fill="none" stroke="black" stroke-dasharray="5,2" d="M959.37,-737.32C954.93,-734.65 950.36,-731.96 946,-729.5 914.35,-711.64 878.09,-692.84 849.51,-678.4"/>
<polygon fill="black" stroke="black" points="851.2,-675.34 840.7,-673.97 848.06,-681.59 851.2,-675.34"/>
<text text-anchor="middle" x="927" y="-700.3" font-family="Times,serif" font-size="14.00">copy</text>
</g>
<!-- SPL -->
<g id="node4" class="node">
<title>SPL</title>
<polygon fill="royalblue" stroke="black" points="545.5,-477.88 542.5,-481.88 521.5,-481.88 518.5,-477.88 470.5,-477.88 470.5,-441.88 545.5,-441.88 545.5,-477.88"/>
<text text-anchor="middle" x="508" y="-456.18" font-family="Times,serif" font-size="14.00">samples</text>
</g>
<!-- INSTALL_DEVEL_IMG -->
<g id="node10" class="node">
<title>INSTALL_DEVEL_IMG</title>
<path fill="royalblue" stroke="black" d="M711,-378.1C711,-380.74 663.49,-382.88 605,-382.88 546.51,-382.88 499,-380.74 499,-378.1 499,-378.1 499,-335.15 499,-335.15 499,-332.51 546.51,-330.37 605,-330.37 663.49,-330.37 711,-332.51 711,-335.15 711,-335.15 711,-378.1 711,-378.1"/>
<path fill="none" stroke="black" d="M711,-378.1C711,-375.47 663.49,-373.33 605,-373.33 546.51,-373.33 499,-375.47 499,-378.1"/>
<text text-anchor="middle" x="605" y="-360.43" font-family="Times,serif" font-size="14.00">dice:&lt;distro&gt;_install_devel</text>
<text text-anchor="middle" x="605" y="-345.43" font-family="Times,serif" font-size="14.00">install_devel</text>
</g>
<!-- SPL&#45;&gt;INSTALL_DEVEL_IMG -->
<g id="edge7" class="edge">
<title>SPL&#45;&gt;INSTALL_DEVEL_IMG</title>
<path fill="none" stroke="black" stroke-dasharray="5,2" d="M524.45,-441.7C537.65,-427.93 556.56,-408.18 572.75,-391.29"/>
<polygon fill="black" stroke="black" points="575,-394 579.39,-384.35 569.95,-389.15 575,-394"/>
<text text-anchor="middle" x="579" y="-404.55" font-family="Times,serif" font-size="14.00">copy</text>
</g>
<!-- ENV_IMG&#45;&gt;DEVEL_IMG -->
<g id="edge1" class="edge">
<title>ENV_IMG&#45;&gt;DEVEL_IMG</title>
<path fill="none" stroke="black" d="M698.07,-729.08C718.03,-714.11 743.2,-695.22 763.42,-680.06"/>
<polygon fill="black" stroke="black" points="765.5,-682.88 771.4,-674.08 761.3,-677.28 765.5,-682.88"/>
</g>
<!-- INSTALL_ENV_IMG -->
<g id="node9" class="node">
<title>INSTALL_ENV_IMG</title>
<path fill="royalblue" stroke="black" d="M764,-481.35C764,-483.99 719.18,-486.13 664,-486.13 608.82,-486.13 564,-483.99 564,-481.35 564,-481.35 564,-438.4 564,-438.4 564,-435.76 608.82,-433.62 664,-433.62 719.18,-433.62 764,-435.76 764,-438.4 764,-438.4 764,-481.35 764,-481.35"/>
<path fill="none" stroke="black" d="M764,-481.35C764,-478.72 719.18,-476.58 664,-476.58 608.82,-476.58 564,-478.72 564,-481.35"/>
<text text-anchor="middle" x="664" y="-463.68" font-family="Times,serif" font-size="14.00">dice:&lt;distro&gt;_install_env</text>
<text text-anchor="middle" x="664" y="-448.68" font-family="Times,serif" font-size="14.00">install_env</text>
</g>
<!-- ENV_IMG&#45;&gt;INSTALL_ENV_IMG -->
<g id="edge4" class="edge">
<title>ENV_IMG&#45;&gt;INSTALL_ENV_IMG</title>
<path fill="none" stroke="black" d="M664,-729.07C664,-675.25 664,-550.39 664,-492.01"/>
<polygon fill="black" stroke="black" points="667.5,-492.13 664,-482.13 660.5,-492.13 667.5,-492.13"/>
</g>
<!-- ENV_TAR -->
<g id="node13" class="node">
<title>ENV_TAR</title>
<polygon fill="royalblue" stroke="black" points="130,-52 16,-52 16,-16 136,-16 136,-46 130,-52"/>
<polyline fill="none" stroke="black" points="130,-52 130,-46"/>
<polyline fill="none" stroke="black" points="136,-46 130,-46"/>
<text text-anchor="middle" x="76" y="-30.3" font-family="Times,serif" font-size="14.00">docker_env.tar</text>
</g>
<!-- ENV_IMG&#45;&gt;ENV_TAR -->
<g id="edge13" class="edge">
<title>ENV_IMG&#45;&gt;ENV_TAR</title>
<path fill="none" stroke="red" d="M589.15,-749.35C431.56,-737.23 80,-704.47 80,-653.38 80,-653.38 80,-653.38 80,-149.12 80,-120.05 78.69,-86.84 77.57,-63.77"/>
<polygon fill="red" stroke="red" points="81.07,-63.72 77.07,-53.91 74.08,-64.07 81.07,-63.72"/>
<text text-anchor="middle" x="170.5" y="-404.55" font-family="Times,serif" font-size="14.00">make save_&lt;distro&gt;_env</text>
</g>
<!-- BUILD_IMG -->
<g id="node7" class="node">
<title>BUILD_IMG</title>
<path fill="royalblue" stroke="black" d="M914.5,-584.6C914.5,-587.24 878.87,-589.38 835,-589.38 791.13,-589.38 755.5,-587.24 755.5,-584.6 755.5,-584.6 755.5,-541.65 755.5,-541.65 755.5,-539.01 791.13,-536.87 835,-536.87 878.87,-536.87 914.5,-539.01 914.5,-541.65 914.5,-541.65 914.5,-584.6 914.5,-584.6"/>
<path fill="none" stroke="black" d="M914.5,-584.6C914.5,-581.97 878.87,-579.83 835,-579.83 791.13,-579.83 755.5,-581.97 755.5,-584.6"/>
<text text-anchor="middle" x="835" y="-566.92" font-family="Times,serif" font-size="14.00">dice:&lt;distro&gt;_build</text>
<text text-anchor="middle" x="835" y="-551.92" font-family="Times,serif" font-size="14.00">build</text>
</g>
<!-- DEVEL_IMG&#45;&gt;BUILD_IMG -->
<g id="edge2" class="edge">
<title>DEVEL_IMG&#45;&gt;BUILD_IMG</title>
<path fill="none" stroke="black" d="M809.61,-625.67C813.66,-615.85 818.31,-604.56 822.52,-594.36"/>
<polygon fill="black" stroke="black" points="825.71,-595.81 826.29,-585.23 819.24,-593.14 825.71,-595.81"/>
</g>
<!-- DEVEL_TAR -->
<g id="node14" class="node">
<title>DEVEL_TAR</title>
<polygon fill="royalblue" stroke="black" points="283.5,-52 154.5,-52 154.5,-16 289.5,-16 289.5,-46 283.5,-52"/>
<polyline fill="none" stroke="black" points="283.5,-52 283.5,-46"/>
<polyline fill="none" stroke="black" points="289.5,-46 283.5,-46"/>
<text text-anchor="middle" x="222" y="-30.3" font-family="Times,serif" font-size="14.00">docker_devel.tar</text>
</g>
<!-- DEVEL_IMG&#45;&gt;DEVEL_TAR -->
<g id="edge14" class="edge">
<title>DEVEL_IMG&#45;&gt;DEVEL_TAR</title>
<path fill="none" stroke="red" d="M718.19,-645.99C572.32,-635.17 280,-608.01 280,-564.12 280,-564.12 280,-564.12 280,-149.12 280,-116.21 260.59,-83.19 244.23,-61.2"/>
<polygon fill="red" stroke="red" points="247.06,-59.14 238.17,-53.39 241.54,-63.43 247.06,-59.14"/>
<text text-anchor="middle" x="376.5" y="-352.93" font-family="Times,serif" font-size="14.00">make save_&lt;distro&gt;_devel</text>
</g>
<!-- TEST_IMG -->
<g id="node8" class="node">
<title>TEST_IMG</title>
<path fill="royalblue" stroke="black" d="M933.5,-481.35C933.5,-483.99 899.66,-486.13 858,-486.13 816.34,-486.13 782.5,-483.99 782.5,-481.35 782.5,-481.35 782.5,-438.4 782.5,-438.4 782.5,-435.76 816.34,-433.62 858,-433.62 899.66,-433.62 933.5,-435.76 933.5,-438.4 933.5,-438.4 933.5,-481.35 933.5,-481.35"/>
<path fill="none" stroke="black" d="M933.5,-481.35C933.5,-478.72 899.66,-476.58 858,-476.58 816.34,-476.58 782.5,-478.72 782.5,-481.35"/>
<text text-anchor="middle" x="858" y="-463.68" font-family="Times,serif" font-size="14.00">dice:&lt;distro&gt;_test</text>
<text text-anchor="middle" x="858" y="-448.68" font-family="Times,serif" font-size="14.00">test</text>
</g>
<!-- BUILD_IMG&#45;&gt;TEST_IMG -->
<g id="edge3" class="edge">
<title>BUILD_IMG&#45;&gt;TEST_IMG</title>
<path fill="none" stroke="black" d="M840.8,-536.58C843.91,-522.89 847.76,-505.94 851.03,-491.55"/>
<polygon fill="black" stroke="black" points="854.37,-492.67 853.17,-482.14 847.54,-491.12 854.37,-492.67"/>
</g>
<!-- BUILD_IMG&#45;&gt;INSTALL_ENV_IMG -->
<g id="edge5" class="edge">
<title>BUILD_IMG&#45;&gt;INSTALL_ENV_IMG</title>
<path fill="none" stroke="black" stroke-dasharray="5,2" d="M789.45,-536.6C779.38,-530.87 768.8,-524.78 759,-519 741.32,-508.58 721.96,-496.8 705.36,-486.59"/>
<polygon fill="black" stroke="black" points="707.58,-483.84 697.23,-481.57 703.9,-489.8 707.58,-483.84"/>
<text text-anchor="middle" x="800" y="-507.8" font-family="Times,serif" font-size="14.00">copy install</text>
</g>
<!-- BUILD_TAR -->
<g id="node15" class="node">
<title>BUILD_TAR</title>
<polygon fill="royalblue" stroke="black" points="1367.5,-52 1240.5,-52 1240.5,-16 1373.5,-16 1373.5,-46 1367.5,-52"/>
<polyline fill="none" stroke="black" points="1367.5,-52 1367.5,-46"/>
<polyline fill="none" stroke="black" points="1373.5,-46 1367.5,-46"/>
<text text-anchor="middle" x="1307" y="-30.3" font-family="Times,serif" font-size="14.00">docker_build.tar</text>
</g>
<!-- BUILD_IMG&#45;&gt;BUILD_TAR -->
<g id="edge15" class="edge">
<title>BUILD_IMG&#45;&gt;BUILD_TAR</title>
<path fill="none" stroke="red" d="M914.96,-555.19C1064.37,-541.13 1371,-506.72 1371,-460.88 1371,-460.88 1371,-460.88 1371,-149.12 1371,-115.53 1349.65,-82.67 1331.61,-60.9"/>
<polygon fill="red" stroke="red" points="1334.33,-58.7 1325.14,-53.43 1329.04,-63.28 1334.33,-58.7"/>
<text text-anchor="middle" x="1466.5" y="-301.3" font-family="Times,serif" font-size="14.00">make save_&lt;distro&gt;_build</text>
</g>
<!-- TEST_TAR -->
<g id="node16" class="node">
<title>TEST_TAR</title>
<polygon fill="royalblue" stroke="black" points="1216.5,-52 1097.5,-52 1097.5,-16 1222.5,-16 1222.5,-46 1216.5,-52"/>
<polyline fill="none" stroke="black" points="1216.5,-52 1216.5,-46"/>
<polyline fill="none" stroke="black" points="1222.5,-46 1216.5,-46"/>
<text text-anchor="middle" x="1160" y="-30.3" font-family="Times,serif" font-size="14.00">docker_test.tar</text>
</g>
<!-- TEST_IMG&#45;&gt;TEST_TAR -->
<g id="edge16" class="edge">
<title>TEST_IMG&#45;&gt;TEST_TAR</title>
<path fill="none" stroke="red" d="M933.82,-448.75C1023.28,-434.63 1160,-405.25 1160,-357.62 1160,-357.62 1160,-357.62 1160,-149.12 1160,-120.07 1160,-86.85 1160,-63.78"/>
<polygon fill="red" stroke="red" points="1163.5,-63.91 1160,-53.91 1156.5,-63.91 1163.5,-63.91"/>
<text text-anchor="middle" x="1251.5" y="-249.68" font-family="Times,serif" font-size="14.00">make save_&lt;distro&gt;_test</text>
</g>
<!-- INSTALL_ENV_IMG&#45;&gt;INSTALL_DEVEL_IMG -->
<g id="edge6" class="edge">
<title>INSTALL_ENV_IMG&#45;&gt;INSTALL_DEVEL_IMG</title>
<path fill="none" stroke="black" d="M649.11,-433.33C641.98,-421.09 633.34,-406.25 625.59,-392.96"/>
<polygon fill="black" stroke="black" points="628.7,-391.35 620.65,-384.47 622.66,-394.88 628.7,-391.35"/>
</g>
<!-- INSTALL_ENV_TAR -->
<g id="node17" class="node">
<title>INSTALL_ENV_TAR</title>
<polygon fill="royalblue" stroke="black" points="1073.5,-52 908.5,-52 908.5,-16 1079.5,-16 1079.5,-46 1073.5,-52"/>
<polyline fill="none" stroke="black" points="1073.5,-52 1073.5,-46"/>
<polyline fill="none" stroke="black" points="1079.5,-46 1073.5,-46"/>
<text text-anchor="middle" x="994" y="-30.3" font-family="Times,serif" font-size="14.00">docker_install_env.tar</text>
</g>
<!-- INSTALL_ENV_IMG&#45;&gt;INSTALL_ENV_TAR -->
<g id="edge17" class="edge">
<title>INSTALL_ENV_IMG&#45;&gt;INSTALL_ENV_TAR</title>
<path fill="none" stroke="red" d="M690.15,-433.14C734.17,-389.99 826.08,-300.58 906,-227.25 931.29,-204.04 946.66,-205.88 964,-176.25 984.59,-141.07 991.12,-93.6 993.15,-63.64"/>
<polygon fill="red" stroke="red" points="996.64,-64.02 993.68,-53.84 989.65,-63.64 996.64,-64.02"/>
<text text-anchor="middle" x="1022" y="-249.68" font-family="Times,serif" font-size="14.00">make save_&lt;distro&gt;_install_env</text>
</g>
<!-- INSTALL_BUILD_IMG -->
<g id="node11" class="node">
<title>INSTALL_BUILD_IMG</title>
<path fill="royalblue" stroke="black" d="M756,-274.85C756,-277.49 708.94,-279.63 651,-279.63 593.06,-279.63 546,-277.49 546,-274.85 546,-274.85 546,-231.9 546,-231.9 546,-229.26 593.06,-227.12 651,-227.12 708.94,-227.12 756,-229.26 756,-231.9 756,-231.9 756,-274.85 756,-274.85"/>
<path fill="none" stroke="black" d="M756,-274.85C756,-272.22 708.94,-270.08 651,-270.08 593.06,-270.08 546,-272.22 546,-274.85"/>
<text text-anchor="middle" x="651" y="-257.18" font-family="Times,serif" font-size="14.00">dice:&lt;distro&gt;_install_build</text>
<text text-anchor="middle" x="651" y="-242.18" font-family="Times,serif" font-size="14.00">install_build</text>
</g>
<!-- INSTALL_DEVEL_IMG&#45;&gt;INSTALL_BUILD_IMG -->
<g id="edge8" class="edge">
<title>INSTALL_DEVEL_IMG&#45;&gt;INSTALL_BUILD_IMG</title>
<path fill="none" stroke="black" d="M616.61,-330.08C622.89,-316.26 630.68,-299.1 637.26,-284.62"/>
<polygon fill="black" stroke="black" points="640.43,-286.1 641.38,-275.55 634.06,-283.2 640.43,-286.1"/>
</g>
<!-- INSTALL_DEVEL_TAR -->
<g id="node18" class="node">
<title>INSTALL_DEVEL_TAR</title>
<polygon fill="royalblue" stroke="black" points="488,-52 308,-52 308,-16 494,-16 494,-46 488,-52"/>
<polyline fill="none" stroke="black" points="488,-52 488,-46"/>
<polyline fill="none" stroke="black" points="494,-46 488,-46"/>
<text text-anchor="middle" x="401" y="-30.3" font-family="Times,serif" font-size="14.00">docker_install_devel.tar</text>
</g>
<!-- INSTALL_DEVEL_IMG&#45;&gt;INSTALL_DEVEL_TAR -->
<g id="edge18" class="edge">
<title>INSTALL_DEVEL_IMG&#45;&gt;INSTALL_DEVEL_TAR</title>
<path fill="none" stroke="red" d="M541.55,-330.34C492.45,-306.98 427.95,-267.1 398,-209.25 373.84,-162.58 383.85,-99.02 392.78,-62.98"/>
<polygon fill="red" stroke="red" points="396.04,-64.32 395.21,-53.76 389.27,-62.54 396.04,-64.32"/>
<text text-anchor="middle" x="520" y="-198.05" font-family="Times,serif" font-size="14.00">make save_&lt;distro&gt;_install_devel</text>
</g>
<!-- INSTALL_TEST_IMG -->
<g id="node12" class="node">
<title>INSTALL_TEST_IMG</title>
<path fill="royalblue" stroke="black" d="M672,-171.6C672,-174.24 626.73,-176.38 571,-176.38 515.27,-176.38 470,-174.24 470,-171.6 470,-171.6 470,-128.65 470,-128.65 470,-126.01 515.27,-123.87 571,-123.87 626.73,-123.87 672,-126.01 672,-128.65 672,-128.65 672,-171.6 672,-171.6"/>
<path fill="none" stroke="black" d="M672,-171.6C672,-168.97 626.73,-166.83 571,-166.83 515.27,-166.83 470,-168.97 470,-171.6"/>
<text text-anchor="middle" x="571" y="-153.93" font-family="Times,serif" font-size="14.00">dice:&lt;distro&gt;_install_test</text>
<text text-anchor="middle" x="571" y="-138.93" font-family="Times,serif" font-size="14.00">install_test</text>
</g>
<!-- INSTALL_BUILD_IMG&#45;&gt;INSTALL_TEST_IMG -->
<g id="edge9" class="edge">
<title>INSTALL_BUILD_IMG&#45;&gt;INSTALL_TEST_IMG</title>
<path fill="none" stroke="black" d="M653.82,-226.68C653.78,-215.92 652.04,-203.73 646,-194.25 641.93,-187.87 636.56,-182.33 630.55,-177.54"/>
<polygon fill="black" stroke="black" points="632.81,-174.85 622.62,-171.94 628.77,-180.57 632.81,-174.85"/>
</g>
<!-- INSTALL_BUILD_TAR -->
<g id="node19" class="node">
<title>INSTALL_BUILD_TAR</title>
<polygon fill="royalblue" stroke="black" points="884,-52 706,-52 706,-16 890,-16 890,-46 884,-52"/>
<polyline fill="none" stroke="black" points="884,-52 884,-46"/>
<polyline fill="none" stroke="black" points="890,-46 884,-46"/>
<text text-anchor="middle" x="798" y="-30.3" font-family="Times,serif" font-size="14.00">docker_install_build.tar</text>
</g>
<!-- INSTALL_BUILD_IMG&#45;&gt;INSTALL_BUILD_TAR -->
<g id="edge19" class="edge">
<title>INSTALL_BUILD_IMG&#45;&gt;INSTALL_BUILD_TAR</title>
<path fill="none" stroke="red" d="M661.77,-226.81C674.26,-198.48 696.45,-152.04 722,-116 736.3,-95.83 755.35,-75.54 770.8,-60.31"/>
<polygon fill="red" stroke="red" points="773.12,-62.93 777.87,-53.46 768.25,-57.9 773.12,-62.93"/>
<text text-anchor="middle" x="843" y="-146.43" font-family="Times,serif" font-size="14.00">make save_&lt;distro&gt;_install_build</text>
</g>
<!-- INSTALL_TEST_TAR -->
<g id="node20" class="node">
<title>INSTALL_TEST_TAR</title>
<polygon fill="royalblue" stroke="black" points="682,-52 512,-52 512,-16 688,-16 688,-46 682,-52"/>
<polyline fill="none" stroke="black" points="682,-52 682,-46"/>
<polyline fill="none" stroke="black" points="688,-46 682,-46"/>
<text text-anchor="middle" x="600" y="-30.3" font-family="Times,serif" font-size="14.00">docker_install_test.tar</text>
</g>
<!-- INSTALL_TEST_IMG&#45;&gt;INSTALL_TEST_TAR -->
<g id="edge20" class="edge">
<title>INSTALL_TEST_IMG&#45;&gt;INSTALL_TEST_TAR</title>
<path fill="none" stroke="red" d="M473.64,-125.46C456.75,-116.8 447.97,-105.47 460,-91 472.42,-76.05 484.56,-89.15 503,-83 522.67,-76.44 543.4,-66.62 560.63,-57.57"/>
<polygon fill="red" stroke="red" points="561.85,-60.89 569,-53.07 558.53,-54.72 561.85,-60.89"/>
<text text-anchor="middle" x="577" y="-94.8" font-family="Times,serif" font-size="14.00">make save_&lt;distro&gt;_install_test</text>
</g>
</g>
</svg>
